<svg width="1080" height="1080" viewBox="0 0 1080 1080" fill="none" xmlns="http://www.w3.org/2000/svg">
<rect width="1080" height="1080" fill="#171717"/>
<path d="M491.605 374.419L500.784 454.613L558.58 374.419H582.888V377.136C577.6 377.479 574.491 377.821 573.561 378.164C571.945 378.801 570.452 380.073 569.081 381.983C567.759 383.892 566.315 387.564 564.748 392.998L546.316 456.155C545.239 459.827 544.7 462.715 544.7 464.82C544.7 466.73 545.361 468.174 546.683 469.153C548.543 470.573 551.481 471.283 555.495 471.283H557.258L556.597 474H514.664L515.398 471.283H517.381C521.102 471.283 523.942 470.744 525.9 469.667C527.418 468.884 528.764 467.415 529.939 465.261C531.163 463.058 532.852 458.211 535.006 450.72L551.456 392.998L493.367 474H490.43L481.103 392.998L463.331 454.613C461.814 459.851 461.055 463.376 461.055 465.188C461.055 466.999 461.716 468.394 463.038 469.373C464.359 470.304 467.566 470.94 472.658 471.283L471.85 474H439.023L439.831 471.283H441.814C446.661 471.283 450.161 470.059 452.316 467.611C453.882 465.848 455.522 462.03 457.236 456.155L478.9 381.909C477.284 380.245 475.742 379.119 474.273 378.531C472.805 377.944 470.088 377.479 466.122 377.136L466.856 374.419H491.605ZM593.242 407.539C594.907 410.379 596.057 413.047 596.694 415.544C597.33 417.992 597.967 422.839 598.603 430.084L601.834 466.216C604.772 462.691 609.031 457.109 614.612 449.472C617.305 445.751 620.634 440.684 624.6 434.27C626.999 430.354 628.468 427.612 629.006 426.045C629.3 425.262 629.447 424.454 629.447 423.622C629.447 423.083 629.276 422.643 628.933 422.3C628.59 421.957 627.684 421.566 626.216 421.125C624.796 420.635 623.596 419.779 622.617 418.555C621.687 417.282 621.222 415.838 621.222 414.222C621.222 412.215 621.809 410.599 622.984 409.375C624.159 408.151 625.628 407.539 627.391 407.539C629.545 407.539 631.381 408.445 632.898 410.256C634.416 412.019 635.175 414.467 635.175 417.6C635.175 421.468 633.853 425.898 631.209 430.892C628.566 435.837 623.474 443.45 615.934 453.731C608.395 464.013 599.264 475.224 588.542 487.366C581.149 495.737 575.666 501.001 572.092 503.155C568.518 505.358 565.458 506.459 562.912 506.459C561.395 506.459 560.073 505.872 558.947 504.697C557.772 503.571 557.184 502.249 557.184 500.731C557.184 498.822 557.992 497.084 559.608 495.517C561.174 493.951 562.888 493.167 564.748 493.167C565.728 493.167 566.535 493.387 567.172 493.828C567.564 494.073 568.004 494.758 568.494 495.884C568.934 497.059 569.351 497.843 569.742 498.234C569.987 498.479 570.281 498.602 570.623 498.602C570.917 498.602 571.431 498.357 572.166 497.867C574.858 496.203 577.992 493.559 581.566 489.936C586.266 485.138 589.742 481.221 591.994 478.186L587.881 431.627C587.196 423.94 586.168 419.265 584.797 417.6C583.426 415.935 581.125 415.103 577.894 415.103C576.866 415.103 575.03 415.25 572.386 415.544L571.725 412.827L593.242 407.539ZM334.38 561.4H437.38L426.28 597.4H422.48C423.747 592.133 424.38 587.433 424.38 583.3C424.38 578.433 422.88 574.767 419.88 572.3C417.613 570.433 411.78 569.5 402.38 569.5H391.68L364.88 662.9C361.48 674.633 359.78 681.867 359.78 684.6C359.78 687.133 360.847 689.233 362.98 690.9C365.113 692.5 368.88 693.3 374.28 693.3H378.88L377.68 697H318.68L319.78 693.3H322.38C327.58 693.3 331.58 692.467 334.38 690.8C336.313 689.667 338.047 687.633 339.58 684.7C341.18 681.7 343.38 675.4 346.18 665.8L374.28 569.5H366.18C358.38 569.5 352.08 570.5 347.28 572.5C342.547 574.5 338.713 577.4 335.78 581.2C332.847 585 330.447 590.4 328.58 597.4H324.88L334.38 561.4ZM489.36 693.3L488.26 697H432.46L433.86 693.3C439.46 693.167 443.16 692.7 444.96 691.9C447.893 690.767 450.06 689.2 451.46 687.2C453.66 684.067 455.927 678.467 458.26 670.4L481.86 588.6C483.86 581.8 484.86 576.667 484.86 573.2C484.86 571.467 484.427 570 483.56 568.8C482.693 567.6 481.36 566.7 479.56 566.1C477.827 565.433 474.393 565.1 469.26 565.1L470.46 561.4H522.86L521.76 565.1C517.493 565.033 514.327 565.5 512.26 566.5C509.26 567.833 506.96 569.733 505.36 572.2C503.827 574.667 501.827 580.133 499.36 588.6L475.86 670.4C473.727 677.933 472.66 682.733 472.66 684.8C472.66 686.467 473.06 687.9 473.86 689.1C474.727 690.233 476.06 691.133 477.86 691.8C479.727 692.4 483.56 692.9 489.36 693.3ZM559.54 561.4H612.94C626.94 561.4 637.407 564.433 644.34 570.5C651.273 576.5 654.74 583.833 654.74 592.5C654.74 599.367 652.54 606.033 648.14 612.5C643.74 618.967 637.207 624.233 628.54 628.3C619.873 632.3 610.507 634.3 600.44 634.3C594.173 634.3 586.207 633.167 576.54 630.9L565.74 667.9C563.207 676.7 561.94 682.5 561.94 685.3C561.94 687.433 562.84 689.2 564.64 690.6C566.44 692 570.74 692.9 577.54 693.3L576.54 697H522.64L523.74 693.3C530.807 693.3 535.707 692.1 538.44 689.7C541.24 687.233 544.24 680.5 547.44 669.5L569.84 592.3C572.507 583.033 573.84 576.833 573.84 573.7C573.84 571.367 572.873 569.433 570.94 567.9C569.073 566.367 564.907 565.433 558.44 565.1L559.54 561.4ZM578.24 624.6C585.773 626.533 591.84 627.5 596.44 627.5C603.707 627.5 610.307 626 616.24 623C622.24 620 626.907 615.5 630.24 609.5C633.64 603.5 635.34 597.267 635.34 590.8C635.34 584.067 633.273 578.733 629.14 574.8C625.007 570.867 618.74 568.9 610.34 568.9C605.807 568.9 600.307 569.467 593.84 570.6L578.24 624.6ZM674.62 700.1L685.82 649.8H689.22C688.753 654.667 688.52 658.7 688.52 661.9C688.52 671.033 691.42 678.467 697.22 684.2C703.087 689.933 710.72 692.8 720.12 692.8C728.853 692.8 735.487 690.133 740.02 684.8C744.553 679.4 746.82 673.2 746.82 666.2C746.82 661.667 745.787 657.533 743.72 653.8C740.587 648.267 732.22 638.533 718.62 624.6C712.02 617.933 707.787 612.967 705.92 609.7C702.853 604.3 701.32 598.633 701.32 592.7C701.32 583.233 704.853 575.133 711.92 568.4C718.987 561.667 728.053 558.3 739.12 558.3C742.853 558.3 746.387 558.667 749.72 559.4C751.787 559.8 755.553 561.133 761.02 563.4C764.887 564.933 767.02 565.767 767.42 565.9C768.353 566.1 769.387 566.2 770.52 566.2C772.453 566.2 774.12 565.7 775.52 564.7C776.92 563.7 778.553 561.567 780.42 558.3H784.22L773.82 603.3H770.42C770.687 599.3 770.82 596.067 770.82 593.6C770.82 585.533 768.153 578.933 762.82 573.8C757.487 568.667 750.453 566.1 741.72 566.1C734.787 566.1 729.153 568.133 724.82 572.2C720.487 576.267 718.32 580.967 718.32 586.3C718.32 590.967 719.687 595.433 722.42 599.7C725.22 603.9 731.587 610.8 741.52 620.4C751.52 629.933 757.987 637.4 760.92 642.8C763.853 648.133 765.32 653.833 765.32 659.9C765.32 666.767 763.487 673.433 759.82 679.9C756.22 686.3 751.02 691.267 744.22 694.8C737.42 698.333 729.987 700.1 721.92 700.1C717.92 700.1 714.187 699.733 710.72 699C707.253 698.267 701.72 696.467 694.12 693.6C691.52 692.6 689.353 692.1 687.62 692.1C683.687 692.1 680.62 694.767 678.42 700.1H674.62Z" fill="white"/>
</svg>